<svg width="24.000000" height="24.000000" viewBox="0 0 24 24" fill="none" xmlns="http://www.w3.org/2000/svg" xmlns:xlink="http://www.w3.org/1999/xlink">
	<desc>
			Created with Pixso.
	</desc>
	<defs>
		<clipPath id="clip2335_31738">
			<rect id="file" rx="-0.500000" width="23.000000" height="23.000000" transform="translate(0.500000 0.500000)" fill="white" fill-opacity="0"/>
		</clipPath>
	</defs>
	<g clip-path="url(#clip2335_31738)">
		<path id="Rectangle 2172" d="M12.77 2C16.03 2 17.66 2 18.79 2.79C19.12 3.02 19.4 3.29 19.65 3.6C20.5 4.66 20.5 6.2 20.5 9.27L20.5 11.81C20.5 14.78 20.5 16.26 20.03 17.44C19.27 19.34 17.68 20.84 15.66 21.55C14.4 22 12.83 22 9.68 22C7.88 22 6.98 22 6.26 21.74C5.1 21.34 4.19 20.48 3.76 19.39C3.5 18.72 3.5 17.87 3.5 16.18L3.5 10C3.5 6.22 3.5 4.34 4.74 3.17C5.98 2 7.99 2 12 2L12.77 2Z" stroke="#FF6600" stroke-opacity="1.000000" stroke-width="1.500000" stroke-linejoin="round"/>
		<path id="Vector" d="M20.5 12C20.5 13.84 19 15.33 17.16 15.33C16.5 15.33 15.71 15.21 15.06 15.39C14.49 15.54 14.04 15.99 13.88 16.56C13.71 17.21 13.83 18 13.83 18.66C13.83 20.5 12.34 22 10.5 22" stroke="#FF6600" stroke-opacity="1.000000" stroke-width="1.500000" stroke-linejoin="round" stroke-linecap="round"/>
		<path id="Vector 4381" d="M8 7L15 7" stroke="#FF6600" stroke-opacity="1.000000" stroke-width="1.500000" stroke-linejoin="round" stroke-linecap="round"/>
		<path id="Vector 4382" d="M8 11L11 11" stroke="#FF6600" stroke-opacity="1.000000" stroke-width="1.500000" stroke-linejoin="round" stroke-linecap="round"/>
	</g>
</svg>
