<svg width="17.000000" height="19.000000" viewBox="0 0 17 19" fill="none" xmlns="http://www.w3.org/2000/svg" xmlns:xlink="http://www.w3.org/1999/xlink">
	<desc>
			Created with Pixso.
	</desc>
	<defs/>
	<path id="Vector" d="M16.05 19L0.94 19C0.69 19 0.45 18.9 0.27 18.72C0.09 18.54 0 18.3 0 18.05L0 0.94C0 0.69 0.09 0.45 0.27 0.27C0.45 0.09 0.69 0 0.94 0L16.05 0C16.3 0 16.54 0.09 16.72 0.27C16.9 0.45 17 0.69 17 0.94L17 18.05C17 18.3 16.9 18.54 16.72 18.72C16.54 18.9 16.3 19 16.05 19ZM3.77 3.8L3.77 7.59L7.55 7.59L7.55 3.8L3.77 3.8ZM3.77 9.5L3.77 11.4L13.22 11.4L13.22 9.5L3.77 9.5ZM3.77 13.3L3.77 15.19L13.22 15.19L13.22 13.3L3.77 13.3ZM9.44 4.75L9.44 6.65L13.22 6.65L13.22 4.75L9.44 4.75Z" fill="#FF6600" fill-opacity="1.000000" fill-rule="nonzero"/>
</svg>
