<svg width="15.000000" height="18.000000" viewBox="0 0 15 18" fill="none" xmlns="http://www.w3.org/2000/svg" xmlns:xlink="http://www.w3.org/1999/xlink">
	<desc>
			Created with Pixso.
	</desc>
	<defs/>
	<path id="Vector" d="M11.66 1.63L14.16 1.63C14.38 1.63 14.59 1.72 14.75 1.87C14.91 2.02 15 2.23 15 2.45L15 17.18C15 17.39 14.91 17.6 14.75 17.76C14.59 17.91 14.38 18 14.16 18L0.83 18C0.61 18 0.4 17.91 0.24 17.76C0.08 17.6 0 17.39 0 17.18L0 2.45C0 2.23 0.08 2.02 0.24 1.87C0.4 1.72 0.61 1.63 0.83 1.63L3.33 1.63L3.33 0L5 0L5 1.63L10 1.63L10 0L11.66 0L11.66 1.63ZM3.33 6.54L3.33 8.18L11.66 8.18L11.66 6.54L3.33 6.54ZM3.33 9.81L3.33 11.45L11.66 11.45L11.66 9.81L3.33 9.81Z" fill="#FF6600" fill-opacity="1.000000" fill-rule="evenodd"/>
</svg>
