<svg width="15.000000" height="18.000000" viewBox="0 0 15 18" fill="none" xmlns="http://www.w3.org/2000/svg" xmlns:xlink="http://www.w3.org/1999/xlink">
	<desc>
			Created with Pixso.
	</desc>
	<defs/>
	<path id="Vector" d="M12.8 12.72L7.5 18L2.19 12.72C1.14 11.68 0.43 10.35 0.14 8.91C-0.15 7.46 0 5.96 0.57 4.6C1.13 3.24 2.09 2.07 3.33 1.25C4.56 0.43 6.01 0 7.5 0C8.98 0 10.43 0.43 11.66 1.25C12.9 2.07 13.86 3.24 14.42 4.6C14.99 5.96 15.14 7.46 14.85 8.91C14.56 10.35 13.85 11.68 12.8 12.72ZM7.5 9.11C7.94 9.11 8.36 8.93 8.67 8.62C8.99 8.31 9.16 7.89 9.16 7.45C9.16 7.01 8.99 6.59 8.67 6.28C8.36 5.97 7.94 5.79 7.5 5.79C7.05 5.79 6.63 5.97 6.32 6.28C6 6.59 5.83 7.01 5.83 7.45C5.83 7.89 6 8.31 6.32 8.62C6.63 8.93 7.05 9.11 7.5 9.11Z" fill="#FF6600" fill-opacity="1.000000" fill-rule="evenodd"/>
</svg>
