<svg width="15.000000" height="13.500000" viewBox="0 0 15 13.5" fill="none" xmlns="http://www.w3.org/2000/svg" xmlns:xlink="http://www.w3.org/1999/xlink">
	<desc>
			Created with Pixso.
	</desc>
	<defs/>
	<path id="Vector" d="M15 7.49L15 12.75C15 12.94 14.92 13.13 14.78 13.28C14.63 13.42 14.44 13.5 14.25 13.5L8.25 13.5L8.25 7.49L15 7.49ZM6.75 7.49L6.75 13.5L0.75 13.5C0.55 13.5 0.36 13.42 0.21 13.28C0.07 13.13 0 12.94 0 12.75L0 7.49L6.75 7.49ZM6.75 0L6.75 5.99L0 5.99L0 0.75C0 0.55 0.07 0.36 0.21 0.21C0.36 0.07 0.55 0 0.75 0L6.75 0ZM14.25 0C14.44 0 14.63 0.07 14.78 0.21C14.92 0.36 15 0.55 15 0.75L15 5.99L8.25 5.99L8.25 0L14.25 0Z" fill="#FF6600" fill-opacity="1.000000" fill-rule="nonzero"/>
</svg>
