<svg width="15.000000" height="14.000000" viewBox="0 0 15 14" fill="none" xmlns="http://www.w3.org/2000/svg" xmlns:xlink="http://www.w3.org/1999/xlink">
	<desc>
			Created with Pixso.
	</desc>
	<defs/>
	<path id="Vector" d="M2.85 0L2.85 14L0 14L0 0L2.85 0ZM4.28 0L11.43 0C12.21 0 12.85 0.62 12.85 1.39L12.85 12.6C12.85 13.37 12.21 14 11.43 14L4.28 14L4.28 0ZM13.57 2.79L15 2.79L15 5.59L13.57 5.59L13.57 2.79ZM13.57 7L15 7L15 9.79L13.57 9.79L13.57 7ZM8.57 7C8.95 7 9.31 6.85 9.58 6.58C9.84 6.32 10 5.97 10 5.59C10 5.22 9.84 4.87 9.58 4.61C9.31 4.34 8.95 4.2 8.57 4.2C8.19 4.2 7.82 4.34 7.56 4.61C7.29 4.87 7.14 5.22 7.14 5.59C7.14 5.97 7.29 6.32 7.56 6.58C7.82 6.85 8.19 7 8.57 7ZM6.42 9.79L10.71 9.79C10.71 9.24 10.48 8.7 10.08 8.31C9.68 7.92 9.13 7.7 8.57 7.7C8 7.7 7.45 7.92 7.05 8.31C6.65 8.7 6.42 9.24 6.42 9.79Z" fill="#FF6600" fill-opacity="1.000000" fill-rule="nonzero"/>
</svg>
