<svg width="15.000000" height="14.000000" viewBox="0 0 15 14" fill="none" xmlns="http://www.w3.org/2000/svg" xmlns:xlink="http://www.w3.org/1999/xlink">
	<desc>
			Created with Pixso.
	</desc>
	<defs/>
	<path id="Vector" d="M6.31 0.43C6.37 0.18 6.6 0 6.88 0L8.09 0C8.37 0 8.61 0.18 8.66 0.43L8.91 1.62C9.49 1.75 10.04 1.96 10.55 2.25L11.63 1.57C11.86 1.43 12.17 1.45 12.36 1.64L13.22 2.44C13.41 2.62 13.44 2.91 13.29 3.12L12.57 4.13C12.88 4.6 13.1 5.11 13.25 5.65L14.53 5.89C14.8 5.94 15 6.16 15 6.42L15 7.55C15 7.81 14.8 8.03 14.53 8.08L13.25 8.32C13.11 8.85 12.88 9.36 12.58 9.84L13.31 10.85C13.46 11.07 13.43 11.35 13.23 11.53L12.37 12.33C12.18 12.52 11.87 12.55 11.64 12.4L10.56 11.73C10.05 12.02 9.51 12.23 8.93 12.36L8.68 13.56C8.62 13.81 8.39 14 8.11 14L6.9 14C6.62 14 6.38 13.81 6.33 13.56L6.08 12.37C5.5 12.24 4.95 12.02 4.44 11.74L3.36 12.41C3.13 12.56 2.82 12.53 2.63 12.35L1.77 11.55C1.58 11.37 1.55 11.08 1.7 10.87L2.42 9.86C2.12 9.38 1.89 8.87 1.74 8.33L0.46 8.1C0.19 8.05 0 7.82 0 7.57L0 6.43C0 6.18 0.19 5.95 0.46 5.91L1.74 5.67C1.88 5.13 2.11 4.62 2.41 4.15L1.68 3.13C1.53 2.92 1.56 2.63 1.76 2.45L2.62 1.65C2.81 1.47 3.12 1.44 3.35 1.58L4.42 2.26C4.93 1.97 5.48 1.75 6.06 1.62L6.31 0.43ZM10.37 7C10.37 5.51 9.09 4.31 7.5 4.31C5.9 4.31 4.61 5.51 4.61 7C4.61 8.48 5.9 9.68 7.5 9.68C9.09 9.68 10.37 8.48 10.37 7Z" fill="#FF6600" fill-opacity="1.000000" fill-rule="evenodd"/>
</svg>
