<svg width="16.000000" height="14.000000" viewBox="0 0 16 14" fill="none"
	xmlns="http://www.w3.org/2000/svg"
	xmlns:xlink="http://www.w3.org/1999/xlink">
	<path id="Vector" d="M9.4 12.36C9.4 12.58 9.21 12.77 8.98 12.77L1.67 12.77C1.44 12.77 1.25 12.58 1.25 12.36L1.25 1.63C1.25 1.41 1.44 1.22 1.67 1.22L8.98 1.22C9.21 1.22 9.4 1.41 9.4 1.63L9.4 4.8L10.65 4.8L10.65 1.63C10.65 0.73 9.9 0 8.98 0L1.67 0C0.75 0 0 0.73 0 1.63L0 12.36C0 13.26 0.75 14 1.67 14L8.98 14C9.9 14 10.65 13.26 10.65 12.36L10.65 9.19L9.4 9.19L9.4 12.36ZM12.55 3.62L11.66 4.48L13.6 6.38L4.45 6.38L4.45 7.61L13.6 7.61L11.66 9.51L12.55 10.37L16 7L12.55 3.62Z" fill="#FF6600" fill-opacity="1.000000" fill-rule="evenodd"/>
</svg>
