<svg width="14.000000" height="14.000000" viewBox="0 0 14 14" fill="none" xmlns="http://www.w3.org/2000/svg" xmlns:xlink="http://www.w3.org/1999/xlink">
	<desc>
			Created with Pixso.
	</desc>
	<defs/>
	<path id="Сохранить" d="M0.77 0L10.88 0L13.77 2.88C13.91 3.02 14 3.22 14 3.43L14 13.22C14 13.42 13.91 13.62 13.77 13.77C13.62 13.91 13.42 14 13.22 14L0.77 14C0.57 14 0.37 13.91 0.22 13.77C0.08 13.62 0 13.42 0 13.22L0 0.77C0 0.57 0.08 0.37 0.22 0.22C0.37 0.08 0.57 0 0.77 0ZM7 11.66C7.61 11.66 8.21 11.41 8.65 10.98C9.08 10.54 9.33 9.95 9.33 9.33C9.33 8.71 9.08 8.12 8.65 7.68C8.21 7.24 7.61 7 7 7C6.38 7 5.78 7.24 5.34 7.68C4.91 8.12 4.66 8.71 4.66 9.33C4.66 9.95 4.91 10.54 5.34 10.98C5.78 11.41 6.38 11.66 7 11.66ZM1.55 1.55L1.55 4.66L9.33 4.66L9.33 1.55L1.55 1.55Z" fill="#FFFFFF" fill-opacity="1.000000" fill-rule="nonzero"/>
</svg>
