<svg width="13.398438" height="13.426758" viewBox="0 0 13.3984 13.4268" fill="none" xmlns="http://www.w3.org/2000/svg" xmlns:xlink="http://www.w3.org/1999/xlink">
	<desc>
			Created with Pixso.
	</desc>
	<defs/>
	<path id="Лупа" d="M6 12C2.68 12 0 9.31 0 6C0 2.68 2.68 0 6 0C9.31 0 12 2.68 12 6C12 7.43 11.49 8.74 10.66 9.77L13.39 12.51L12.48 13.42L9.74 10.68C8.71 11.5 7.41 12 6 12ZM10 6C10 8.2 8.2 10 6 10C3.79 10 2 8.2 2 6C2 3.79 3.79 2 6 2C8.2 2 10 3.79 10 6Z" fill="#AEAEAE" fill-opacity="1.000000" fill-rule="evenodd"/>
</svg>
