<svg width="20.000000" height="19.350586" viewBox="0 0 20 19.3506" fill="none" xmlns="http://www.w3.org/2000/svg" xmlns:xlink="http://www.w3.org/1999/xlink">
	<desc>
			Created with Pixso.
	</desc>
	<defs>
		<clipPath id="clip2335_31362">
			<rect id="Frame 254" rx="-0.107504" width="19.784992" height="19.135643" transform="translate(0.107504 0.107504)" fill="white" fill-opacity="0"/>
		</clipPath>
	</defs>
	<g clip-path="url(#clip2335_31362)">
		<path id="Vector" d="M19.99 5.45C19.98 5.42 19.96 5.4 19.94 5.39L19.67 5.26L18.9 4.88C18.88 4.87 18.85 4.87 18.83 4.87C18.81 4.88 18.79 4.9 18.78 4.92L18.09 6.31C17.73 5.43 17.22 4.62 16.59 3.9C15.82 3.01 14.89 2.3 13.83 1.78C12.77 1.26 11.63 0.97 10.46 0.91C10.3 0.9 10.14 0.89 9.98 0.89C9.01 0.89 8.05 1.05 7.12 1.37C6.05 1.74 5.07 2.31 4.21 3.05C3.33 3.83 2.61 4.76 2.09 5.82C1.77 6.49 1.53 7.19 1.38 7.9C1.38 7.93 1.38 7.95 1.4 7.97C1.41 8 1.43 8.01 1.46 8.01L2.59 8.25C2.64 8.26 2.69 8.23 2.7 8.18C2.83 7.57 3.03 6.98 3.31 6.41C4.18 4.63 5.69 3.29 7.56 2.65C8.35 2.38 9.17 2.24 9.99 2.24C11.12 2.24 12.21 2.49 13.24 2.99C14.88 3.8 16.16 5.15 16.85 6.84L15.34 6.11C15.29 6.08 15.23 6.1 15.21 6.15L14.71 7.2C14.68 7.24 14.7 7.3 14.75 7.32L18.18 8.97C18.19 8.98 18.2 8.98 18.22 8.98C18.25 8.98 18.29 8.96 18.3 8.93L19.67 6.16L19.98 5.52C20 5.5 20 5.47 19.99 5.45ZM18.51 11.31L17.38 11.08C17.35 11.07 17.33 11.08 17.3 11.09C17.28 11.1 17.27 11.12 17.26 11.15C17.15 11.69 16.98 12.23 16.75 12.74C16.72 12.8 16.69 12.87 16.66 12.93C15.79 14.71 14.28 16.05 12.4 16.69C11.61 16.96 10.8 17.1 9.98 17.1C8.85 17.1 7.75 16.85 6.73 16.35C5.06 15.53 3.78 14.16 3.1 12.46L4.65 13.22C4.67 13.23 4.7 13.23 4.72 13.23C4.75 13.22 4.77 13.2 4.78 13.18L5.29 12.14C5.31 12.09 5.29 12.03 5.24 12.01L1.81 10.34C1.77 10.32 1.71 10.33 1.69 10.38L0.36 13.08C0.36 13.09 0.36 13.09 0.35 13.1L0.32 13.17L0 13.81C-0.02 13.86 0 13.92 0.05 13.94L0.32 14.07L1.09 14.45C1.11 14.46 1.14 14.46 1.16 14.46C1.18 14.45 1.2 14.43 1.21 14.41L1.88 13.04C2.17 13.73 2.53 14.37 2.97 14.95C3.81 16.07 4.87 16.94 6.14 17.56C7.2 18.08 8.33 18.37 9.51 18.44C9.67 18.44 9.83 18.45 9.98 18.45C10.95 18.45 11.91 18.29 12.84 17.97C13.92 17.6 14.9 17.03 15.75 16.29C16.64 15.51 17.35 14.58 17.87 13.52C17.91 13.45 17.94 13.37 17.97 13.3C18.25 12.7 18.45 12.06 18.58 11.42C18.6 11.37 18.56 11.32 18.51 11.31Z" fill="#FFFFFF" fill-opacity="1.000000" fill-rule="evenodd"/>
	</g>
</svg>
