<svg width="4.000000" height="16.000000" viewBox="0 0 4 16" fill="none" xmlns="http://www.w3.org/2000/svg" xmlns:xlink="http://www.w3.org/1999/xlink">
	<desc>
			Created with Pixso.
	</desc>
	<defs/>
	<path id="Vector" d="M4 2C4 3.1 3.1 4 2 4C0.89 4 0 3.1 0 2C0 0.89 0.89 0 2 0C3.1 0 4 0.89 4 2ZM4 8C4 9.1 3.1 10 2 10C0.89 10 0 9.1 0 8C0 6.89 0.89 6 2 6C3.1 6 4 6.89 4 8ZM2 16C3.1 16 4 15.1 4 14C4 12.89 3.1 12 2 12C0.89 12 0 12.89 0 14C0 15.1 0.89 16 2 16Z" fill="#FF6600" fill-opacity="1.000000" fill-rule="evenodd"/>
</svg>
